<svg width="24" height="24" viewBox="0 0 24 24" fill="none" xmlns="http://www.w3.org/2000/svg">
<path fill-rule="evenodd" clip-rule="evenodd" d="M23 19L23.02 19.096C23.399 21.014 22.456 22.99 20 23C15.389 23.019 8.611 23 4 23C1.508 23 0.652 21.024 1 19H23ZM22 18H2C0.896 18 0 17.104 0 16C0 14.896 0.896 14 2 14H6.481C8.851 14.017 9.333 16.006 10.5 16C11.667 15.994 12.281 14.024 14.465 14H22C23.104 14 24 14.896 24 16C24 17.104 23.104 18 22 18ZM18.022 13.249C17.345 13.249 16.729 12.941 16.185 12.67C15.065 12.113 14.973 12.112 13.852 12.67C13.309 12.941 12.693 13.249 12.015 13.249C11.336 13.249 10.721 12.941 10.177 12.67C9.06 12.113 8.963 12.112 7.845 12.67C7.301 12.941 6.686 13.249 6.007 13.249C5.33 13.249 4.713 12.941 4.17 12.67C3.168 12.171 2.698 11.914 1.218 13.085C1.075 13.199 0.914 13.25 0.756 13.25C0.366 13.25 0 12.938 0 12.499C0 12.28 0.096 12.062 0.282 11.915C2.362 10.254 3.521 10.671 4.841 11.33C5.275 11.546 5.684 11.75 6.007 11.75C6.331 11.75 6.741 11.546 7.173 11.33C8.716 10.561 9.293 10.554 10.849 11.33C11.282 11.546 11.692 11.75 12.015 11.75C12.338 11.75 12.748 11.546 13.181 11.33C14.724 10.561 15.3 10.554 16.856 11.33C17.291 11.546 17.699 11.75 18.022 11.75C18.346 11.75 18.754 11.546 19.189 11.33C20.49 10.681 21.663 10.24 23.725 11.92C23.906 12.068 24 12.283 24 12.499C24 12.911 23.667 13.248 23.249 13.248C23.083 13.248 22.915 13.193 22.774 13.08C21.337 11.912 20.861 12.171 19.86 12.67C19.316 12.941 18.7 13.249 18.022 13.249V13.249ZM23 10H1C1 5.033 5.377 1 12 1C18.623 1 23 5.033 23 10ZM7.5 5C7.776 5 8 5.224 8 5.5C8 5.776 7.776 6 7.5 6C7.224 6 7 5.776 7 5.5C7 5.224 7.224 5 7.5 5ZM11.5 5C11.776 5 12 5.224 12 5.5C12 5.776 11.776 6 11.5 6C11.224 6 11 5.776 11 5.5C11 5.224 11.224 5 11.5 5ZM15.5 5C15.776 5 16 5.224 16 5.5C16 5.776 15.776 6 15.5 6C15.224 6 15 5.776 15 5.5C15 5.224 15.224 5 15.5 5ZM19.5 5C19.776 5 20 5.224 20 5.5C20 5.776 19.776 6 19.5 6C19.224 6 19 5.776 19 5.5C19 5.224 19.224 5 19.5 5ZM8.5 3C8.776 3 9 3.224 9 3.5C9 3.776 8.776 4 8.5 4C8.224 4 8 3.776 8 3.5C8 3.224 8.224 3 8.5 3ZM5.5 4C5.776 4 6 4.224 6 4.5C6 4.776 5.776 5 5.5 5C5.224 5 5 4.776 5 4.5C5 4.224 5.224 4 5.5 4ZM14.5 3C14.776 3 15 3.224 15 3.5C15 3.776 14.776 4 14.5 4C14.224 4 14 3.776 14 3.5C14 3.224 14.224 3 14.5 3ZM17.5 3C17.776 3 18 3.224 18 3.5C18 3.776 17.776 4 17.5 4C17.224 4 17 3.776 17 3.5C17 3.224 17.224 3 17.5 3ZM11.5 2C11.776 2 12 2.224 12 2.5C12 2.776 11.776 3 11.5 3C11.224 3 11 2.776 11 2.5C11 2.224 11.224 2 11.5 2Z" fill="white"/>
</svg>
