<svg width="256" height="256" viewBox="0 0 256 256" fill="none" xmlns="http://www.w3.org/2000/svg">
<g clip-path="url(#clip0_305_130)">
<path d="M23.759 51.5H232.137C245.325 51.5 256 62.175 256 75.363V154.904C256 168.092 245.325 178.767 232.137 178.767H157.41L167.667 203.885L122.558 178.767H23.863C10.676 178.767 0.00101221 168.092 0.00101221 154.904V75.363C-0.103988 62.28 10.57 51.5 23.759 51.5Z" fill="black"/>
<path d="M14.5781 73.2502C16.0351 71.2722 18.2201 70.2322 21.1341 70.0242C26.4421 69.6072 29.4601 72.1042 30.1881 77.5162C33.4141 99.2662 36.9521 117.686 40.6981 132.775L63.4881 89.3802C65.5701 85.4252 68.1721 83.3442 71.2941 83.1362C75.8731 82.8242 78.6821 85.7372 79.8271 91.8772C82.4291 105.717 85.7591 117.477 89.7131 127.467C92.4191 101.035 96.9981 81.9912 103.45 70.2322C105.01 67.3182 107.3 65.8612 110.318 65.6522C112.712 65.4452 114.897 66.1732 116.874 67.7342C118.851 69.2952 119.892 71.2722 120.1 73.6662C120.204 75.5392 119.892 77.1002 119.06 78.6612C115.001 86.1542 111.67 98.7462 108.965 116.228C106.364 133.191 105.427 146.408 106.051 155.878C106.26 158.478 105.843 160.768 104.803 162.746C103.553 165.035 101.681 166.284 99.2871 166.492C96.5811 166.7 93.7721 165.452 91.0661 162.642C81.3881 152.755 73.6871 137.978 68.0681 118.31C61.3031 131.63 56.3081 141.62 53.0821 148.28C46.9421 160.04 41.7391 166.076 37.3681 166.388C34.5581 166.596 32.1651 164.202 30.0841 159.208C24.7771 145.575 19.0531 119.246 12.9141 80.2222C12.4971 77.5162 13.1211 75.1222 14.5781 73.2502ZM238.214 89.5882C234.468 83.0322 228.952 79.0782 221.564 77.5162C219.586 77.1002 217.714 76.8922 215.944 76.8922C205.954 76.8922 197.837 82.0952 191.489 92.5022C186.077 101.347 183.372 111.129 183.372 121.848C183.372 129.861 185.037 136.729 188.367 142.453C192.113 149.009 197.629 152.963 205.017 154.524C206.994 154.941 208.867 155.149 210.637 155.149C220.731 155.149 228.848 149.946 235.092 139.539C240.503 130.589 243.209 120.807 243.209 110.089C243.313 101.972 241.544 95.2072 238.214 89.5882ZM225.102 118.414C223.645 125.282 221.043 130.381 217.192 133.815C214.175 136.521 211.365 137.665 208.764 137.145C206.266 136.625 204.184 134.44 202.624 130.381C201.374 127.155 200.751 123.929 200.751 120.911C200.751 118.31 200.959 115.708 201.479 113.315C202.416 109.048 204.185 104.885 206.994 100.931C210.429 95.8312 214.071 93.7512 217.817 94.4792C220.315 94.9992 222.397 97.1852 223.957 101.243C225.206 104.469 225.83 107.695 225.83 110.713C225.83 113.419 225.622 116.021 225.102 118.414ZM173.069 89.5882C169.323 83.0322 163.703 79.0782 156.419 77.5162C154.442 77.1002 152.569 76.8922 150.799 76.8922C140.809 76.8922 132.692 82.0952 126.344 92.5022C120.933 101.347 118.227 111.129 118.227 121.848C118.227 129.861 119.892 136.729 123.222 142.453C126.968 149.009 132.484 152.963 139.872 154.524C141.85 154.941 143.722 155.149 145.492 155.149C155.586 155.149 163.703 149.946 169.947 139.539C175.359 130.589 178.064 120.807 178.064 110.089C178.064 101.972 176.399 95.2072 173.069 89.5882ZM159.853 118.414C158.396 125.282 155.794 130.381 151.944 133.815C148.926 136.521 146.116 137.665 143.514 137.145C141.017 136.625 138.936 134.44 137.374 130.381C136.126 127.155 135.502 123.929 135.502 120.911C135.502 118.31 135.71 115.708 136.23 113.315C137.167 109.048 138.936 104.885 141.746 100.931C145.18 95.8312 148.822 93.7512 152.568 94.4792C155.066 94.9992 157.148 97.1852 158.708 101.243C159.958 104.469 160.581 107.695 160.581 110.713C160.686 113.419 160.373 116.021 159.853 118.414Z" fill="white"/>
</g>
<defs>
<clipPath id="clip0_305_130">
<rect width="256" height="256" fill="white"/>
</clipPath>
</defs>
</svg>
